<svg xmlns="http://www.w3.org/2000/svg" xmlns:xlink="http://www.w3.org/1999/xlink" width="480" zoomAndPan="magnify" viewBox="0 0 360 359.999987" height="480" preserveAspectRatio="xMidYMid meet" version="1.2"><defs><clipPath id="f53e79bbb8"><path d="M 46.210938 36 L 313.960938 36 L 313.960938 324 L 46.210938 324 Z M 46.210938 36 "/></clipPath></defs><g id="9fe02e7a52"><rect x="0" width="360" y="0" height="359.999987" style="fill:#ffffff;fill-opacity:1;stroke:none;"/><rect x="0" width="360" y="0" height="359.999987" style="fill:#ffffff;fill-opacity:1;stroke:none;"/><g clip-rule="nonzero" clip-path="url(#f53e79bbb8)"><path style=" stroke:none;fill-rule:evenodd;fill:#000000;fill-opacity:1;" d="M 190.378906 313.714844 L 190.378906 46.285156 C 190.378906 40.609375 185.765625 36 180.085938 36 C 174.40625 36 169.792969 40.609375 169.792969 46.285156 L 169.792969 313.714844 C 169.792969 319.390625 174.40625 324 180.085938 324 C 185.765625 324 190.378906 319.390625 190.378906 313.714844 Z M 231.546875 262.285156 L 231.546875 97.714844 C 231.546875 92.035156 226.9375 87.429688 221.253906 87.429688 C 215.574219 87.429688 210.964844 92.035156 210.964844 97.714844 L 210.964844 262.285156 C 210.964844 267.964844 215.574219 272.570312 221.253906 272.570312 C 226.9375 272.570312 231.546875 267.964844 231.546875 262.285156 Z M 149.207031 262.285156 L 149.207031 97.714844 C 149.207031 92.035156 144.597656 87.429688 138.914062 87.429688 C 133.234375 87.429688 128.625 92.035156 128.625 97.714844 L 128.625 262.285156 C 128.625 267.964844 133.234375 272.570312 138.914062 272.570312 C 144.597656 272.570312 149.207031 267.964844 149.207031 262.285156 Z M 272.71875 231.429688 L 272.71875 128.570312 C 272.71875 122.894531 268.105469 118.285156 262.425781 118.285156 C 256.746094 118.285156 252.132812 122.894531 252.132812 128.570312 L 252.132812 231.429688 C 252.132812 237.105469 256.746094 241.714844 262.425781 241.714844 C 268.105469 241.714844 272.71875 237.105469 272.71875 231.429688 Z M 108.039062 231.429688 L 108.039062 128.570312 C 108.039062 122.894531 103.425781 118.285156 97.746094 118.285156 C 92.066406 118.285156 87.453125 122.894531 87.453125 128.570312 L 87.453125 231.429688 C 87.453125 237.105469 92.066406 241.714844 97.746094 241.714844 C 103.425781 241.714844 108.039062 237.105469 108.039062 231.429688 Z M 66.867188 210.855469 L 66.867188 149.144531 C 66.867188 143.464844 62.257812 138.855469 56.578125 138.855469 C 50.894531 138.855469 46.285156 143.464844 46.285156 149.144531 L 46.285156 210.855469 C 46.285156 216.535156 50.894531 221.144531 56.578125 221.144531 C 62.257812 221.144531 66.867188 216.535156 66.867188 210.855469 Z M 313.886719 210.855469 L 313.886719 149.144531 C 313.886719 143.464844 309.277344 138.855469 303.59375 138.855469 C 297.914062 138.855469 293.304688 143.464844 293.304688 149.144531 L 293.304688 210.855469 C 293.304688 216.535156 297.914062 221.144531 303.59375 221.144531 C 309.277344 221.144531 313.886719 216.535156 313.886719 210.855469 Z M 313.886719 210.855469 "/></g></g></svg>