<svg xmlns="http://www.w3.org/2000/svg" version="1.1" xmlns:xlink="http://www.w3.org/1999/xlink" width="500" height="500"><svg xmlns="http://www.w3.org/2000/svg" xmlns:xlink="http://www.w3.org/1999/xlink" width="500" zoomAndPan="magnify" viewBox="0 0 375 374.999991" height="500" preserveAspectRatio="xMidYMid meet" version="1.2"><defs><clipPath id="SvgjsClipPath1007"><path d="M 20.582031 77.472656 L 354 77.472656 L 354 297.222656 L 20.582031 297.222656 Z M 20.582031 77.472656 "></path></clipPath><clipPath id="SvgjsClipPath1006"><path d="M 218.507812 189.742188 L 225.984375 189.742188 L 225.984375 206.859375 L 218.507812 206.859375 Z M 218.507812 189.742188 "></path></clipPath><clipPath id="SvgjsClipPath1005"><path d="M 220.273438 190.5 C 221.398438 198.675781 226.425781 204.898438 225.898438 206.101562 C 225.75 206.550781 224.699219 206.699219 224.550781 206.550781 C 224.398438 206.476562 224.550781 205.648438 224.773438 205.5 C 225 205.351562 225.675781 205.574219 225.824219 205.800781 C 225.976562 206.023438 225.898438 206.550781 225.675781 206.699219 C 225.449219 206.851562 225 206.925781 224.625 206.625 C 223.273438 205.726562 220.050781 199.273438 219.148438 196.199219 C 218.550781 194.023438 218.324219 191.25 218.773438 190.351562 C 218.925781 189.976562 219.300781 189.75 219.601562 189.75 C 219.824219 189.824219 220.273438 190.5 220.273438 190.5 "></path></clipPath></defs><g id="SvgjsG1004"><g clip-rule="nonzero" clip-path="url(#bf11fd2bc7)"><path style=" stroke:none;fill-rule:nonzero;fill:#004aad;fill-opacity:1;" d="M 110.9375 286.113281 L 147.058594 217.703125 L 187.269531 297.214844 L 227.476562 217.640625 L 263.597656 286.121094 L 353.953125 286.121094 L 292.085938 162.65625 L 285.84375 175.207031 L 335.703125 274.75 L 270.414062 274.75 L 233.628906 205.132812 L 273.371094 124.308594 L 247.417969 77.472656 L 199.707031 165.132812 L 220.980469 205.59375 L 187.269531 274.304688 L 153.558594 205.609375 L 174.832031 165.167969 L 127.117188 77.546875 L 101.175781 124.453125 L 140.914062 205.121094 L 104.128906 274.746094 L 38.832031 274.746094 L 88.695312 175.332031 L 82.453125 162.492188 L 20.585938 286.113281 Z M 212.503906 165.261719 L 247.5 100.992188 L 260.65625 124.765625 L 227.140625 193.074219 Z M 113.886719 124.765625 L 127.042969 100.992188 L 162.042969 165.261719 L 147.410156 193.082031 Z M 113.886719 124.765625 "></path></g><g clip-rule="nonzero" clip-path="url(#8d251a5ea0)"><g clip-rule="nonzero" clip-path="url(#a6e2571012)"><path style=" stroke:none;fill-rule:nonzero;fill:#0571d3;fill-opacity:1;" d="M 215.773438 186.75 L 228.976562 186.75 L 228.976562 209.695312 L 215.773438 209.695312 Z M 215.773438 186.75 "></path></g></g></g></svg><style>@media (prefers-color-scheme: light) { :root { filter: none; } }
@media (prefers-color-scheme: dark) { :root { filter: none; } }
</style></svg>